<?xml version="1.0" encoding="utf-8"?>
<!-- Generator: Adobe Illustrator 25.2.0, SVG Export Plug-In . SVG Version: 6.00 Build 0)  -->
<svg version="1.1" id="Layer_1" xmlns="http://www.w3.org/2000/svg" xmlns:xlink="http://www.w3.org/1999/xlink" x="0px" y="0px"
	 viewBox="0 0 1280 1024" style="enable-background:new 0 0 1280 1024;" xml:space="preserve">
<style type="text/css">
	.st0{clip-path:url(#SVGID_2_);fill:url(#SVGID_3_);}
	.st1{fill-rule:evenodd;clip-rule:evenodd;fill:#F03761;}
	.st2{fill:#FFFFFF;}
	.st3{font-family:'Poppins-Medium';}
	.st4{font-size:96.6144px;}
	.st5{fill:none;stroke:#F03761;stroke-width:0.5;stroke-miterlimit:2.6131;}
</style>
<g>
	<defs>
		<path id="SVGID_1_" d="M549.5,324.8c6.1-2,12.2-3,18-3c17.8-0.2,32.7,7.4,44.6,20.2c10,10.8,17.9,25.7,23.4,42.7
			c9.7,29.9,11.9,67.1,4.8,99c130.3-116.8-10.2-298.2-80.4-374.4C565.3,164.2,569.7,256.5,549.5,324.8 M284.2,674.4l-10.2-36.9
			c-0.2-0.5-0.4-0.9-0.5-1.4l0,0c-0.1-0.3-31.5-105.8,120-169.7c8.3-3.5,18.5-0.7,22.7,6.3c4.2,7,0.8,15.5-7.6,19
			c-67.1,28.3-91.9,65-100.2,93.5c31.7-32,83.4-67.7,144.1-46.1c20.2,7.2,34,17.6,47.8,27.9c42.7,32,84.6,63.4,358.5-70.9
			c-43.7-0.8-98.8-3.4-122.2-10.9c-8.8-2.8-13.1-11-9.8-18.4c3.3-7.3,13.1-11,21.9-8.2c35.5,11.4,170.3,9.4,170.7,9.4
			c9.3-0.1,17,6.1,17.2,14c0.1,5.2-3.2,9.8-8.1,12.3l0,0c-342.3,175.1-396,134.9-450.7,93.8c-11.7-8.8-23.5-17.6-38.4-22.9
			c-71.5-25.4-133.1,72.1-134.4,74.2l0.1,0L284.2,674.4z M446.9,184.3c2-7.7,11-12.5,20.2-10.8c9.1,1.7,14.9,9.3,12.9,16.9
			c-35.4,133.8-26,220,0,272.2c11.9,23.9,27.2,40.2,43,50.3c14.7,9.4,29.5,13.4,42.1,13.1c6.4-0.1,12-1.4,16.5-3.5
			c0.3-0.2,0.6-0.3,0.9-0.5c0.3-0.1,0.5-0.3,0.8-0.4c1.3-0.7,2.5-1.6,3.5-2.5c27.4-23.8,30.3-83.7,16.2-127.1
			c-4.3-13.3-10.3-24.7-17.6-32.6c-5.4-5.9-11.4-9.4-17.4-9.3c-11.4,0.1-26.3,10-45,34c-5.1,6.6-15.6,8.4-23.4,4.2
			c-7.8-4.3-10.1-13.1-5-19.6c0.9-1.1,1.7-2.2,2.6-3.3c-0.2-2.6,0.5-5.3,2.1-7.7c55.2-83.9,21.5-291,21.5-291.6
			c-1.2-7.8,5.3-14.9,14.6-15.9c6-0.7,11.6,1.4,15.2,5c14.6,13.5,359.2,336.8,49.1,491.3c-0.3,0.1-0.5,0.2-0.8,0.4
			c-9.4,4.6-20.8,7.3-33.1,7.6c-19.7,0.4-42.2-5.3-63.4-18.9c-20.1-12.9-39.3-33.1-53.7-61.9C420.3,416.9,409.7,324.8,446.9,184.3z"
			/>
	</defs>
	<clipPath id="SVGID_2_">
		<use xlink:href="#SVGID_1_"  style="overflow:visible;"/>
	</clipPath>
	<linearGradient id="SVGID_3_" gradientUnits="userSpaceOnUse" x1="426.9165" y1="511.8754" x2="807.0399" y2="160.7455">
		<stop  offset="0" style="stop-color:#EE426A"/>
		<stop  offset="1" style="stop-color:#C62980"/>
	</linearGradient>
	<rect x="241.9" y="49.5" class="st0" width="694.7" height="624.9"/>
</g>
<path class="st1" d="M574.2,854.6c0-11.8-2.4-22-7.2-30.7c-4.8-8.7-11.1-15.3-18.8-19.8c-7.8-4.5-16.1-6.8-25.1-6.8
	c-9,0-17.4,2.2-25.1,6.7c-7.8,4.4-14,11-18.8,19.5c-4.8,8.6-7.2,18.8-7.2,30.5c0,11.8,2.4,22.1,7.2,31c4.8,8.9,11.1,15.7,19,20.3
	c7.9,4.6,16.2,7,25,7c9,0,17.4-2.3,25.1-6.8c7.8-4.5,14-11.2,18.8-20C571.8,876.7,574.2,866.4,574.2,854.6 M436,854
	c0-17.1,3.5-32.3,10.6-45.6c7-13.2,16.6-23.5,28.8-30.8c12.2-7.3,25.7-11,40.6-11c11,0,21.9,2.4,32.6,7.3
	c10.7,4.9,19.3,11.3,25.6,19.4v-82.4h35.2v229.4h-35.2v-25.7c-5.7,8.3-13.6,15.1-23.7,20.5c-10.1,5.4-21.7,8.1-34.8,8.1
	c-14.7,0-28.1-3.8-40.3-11.3c-12.2-7.5-21.8-18.1-28.8-31.6C439.5,886.5,436,871.2,436,854z"/>
<path class="st1" d="M282.5,704.8c10.6,0,19.2,8.7,19.2,19.4c0,10.7-8.6,19.4-19.2,19.4s-19.2-8.7-19.2-19.4
	C263.4,713.5,271.9,704.8,282.5,704.8 M282.6,752.1c-7.8,0-14.4-2.7-19.7-8c-5.3-5.4-8-12-8-19.9c0-7.9,2.7-14.6,8-19.9
	c5.3-5.4,11.9-8,19.7-8c7.6,0,14,2.7,19.3,8c5.3,5.4,8,12,8,19.9c0,7.9-2.6,14.6-8,19.9C296.6,749.4,290.2,752.1,282.6,752.1z"/>
<path class="st1" d="M161.8,911.3c11.8,0,21.1-2.9,27.9-8.7c6.7-5.8,10.1-13.8,10.1-24.2c0-10.5-3.6-18.9-10.7-25.1
	c-7.1-6.2-16.6-9.3-28.5-9.3h-46v67.3H161.8z M114.6,815.3h43.2c11.4,0,20.4-2.6,26.8-7.9c6.4-5.3,9.7-12.9,9.7-22.8
	c0-9.7-3.2-17.3-9.7-22.8c-6.4-5.5-15.4-8.2-26.8-8.2h-43.2V815.3z M193.6,829.5c11.4,2.1,21.1,8.2,29.1,18.3
	c8,10.1,12,21.6,12,34.4c0,11-2.8,20.8-8.4,29.6c-5.6,8.8-13.7,15.7-24.4,20.8c-10.6,5.1-23,7.6-37.1,7.6H79.6V724.8h81.2
	c14.5,0,27,2.5,37.4,7.4c10.4,5,18.3,11.6,23.6,20c5.3,8.4,8,17.7,8,28.1c0,12.4-3.3,22.7-9.8,31
	C213.4,819.5,204.7,825.6,193.6,829.5z"/>
<path class="st1" d="M372.8,794.2c5.1-8.7,11.9-15.4,20.4-20.3c8.5-4.9,18.5-7.3,30.2-7.3v36.6h-8.9c-13.7,0-24.1,3.5-31.1,10.5
	c-7,7-10.6,19.2-10.6,36.6v89.9h-34.9V769.4h34.9V794.2z"/>
<rect x="264.8" y="769.4" class="st1" width="34.9" height="170.8"/>
<text transform="matrix(0.9886 0 0 1 776.8076 812.4814)" class="st2 st3 st4">S</text>
<text transform="matrix(0.9886 0 0 1 832.0449 812.4814)" class="st2 st3 st4">o</text>
<text transform="matrix(0.9886 0 0 1 890.5293 812.4814)" class="st2 st3 st4">f</text>
<text transform="matrix(0.9886 0 0 1 919.7832 812.4814)" class="st2 st3 st4">t</text>
<text transform="matrix(0.9886 0 0 1 952.8613 812.4814)" class="st2 st3 st4">w</text>
<text transform="matrix(0.9886 0 0 1 1029.207 812.4814)" class="st2 st3 st4">a</text>
<text transform="matrix(0.9886 0 0 1 1091.5137 812.4814)" class="st2 st3 st4">r</text>
<text transform="matrix(0.9886 0 0 1 1125.7373 812.4814)" class="st2 st3 st4">e</text>
<text transform="matrix(0.9886 0 0 1 776.8037 912.7705)" class="st2 st3 st4">s</text>
<text transform="matrix(0.9886 0 0 1 825.3545 912.7705)" class="st2 st3 st4">o</text>
<text transform="matrix(0.9886 0 0 1 883.8359 912.7705)" class="st2 st3 st4">l</text>
<text transform="matrix(0.9886 0 0 1 906.6016 912.7705)" class="st2 st3 st4">u</text>
<text transform="matrix(0.9886 0 0 1 966.1377 912.7705)" class="st2 st3 st4">t</text>
<text transform="matrix(0.9886 0 0 1 999.2148 912.7705)" class="st2 st3 st4">i</text>
<text transform="matrix(0.9886 0 0 1 1021.9766 912.7705)" class="st2 st3 st4">o</text>
<text transform="matrix(0.9886 0 0 1 1080.459 912.7705)" class="st2 st3 st4">n</text>
<text transform="matrix(0.9886 0 0 1 1139.998 912.7705)" class="st2 st3 st4">s</text>
<path class="st1" d="M282.5,715.4c4.8,0,8.7,4,8.7,8.8c0,4.9-3.9,8.8-8.7,8.8c-4.8,0-8.7-4-8.7-8.8
	C273.8,719.3,277.7,715.4,282.5,715.4"/>
<line class="st5" x1="700.4" y1="758.7" x2="700.4" y2="905.2"/>
</svg>
